<svg width="178" height="178" viewBox="0 0 178 178" fill="none" xmlns="http://www.w3.org/2000/svg">
<path fill-rule="evenodd" clip-rule="evenodd" d="M88.9304 177.141C137.661 177.141 177.164 137.637 177.164 88.9069C177.164 40.1766 137.661 0.672852 88.9304 0.672852C40.2 0.672852 0.696289 40.1766 0.696289 88.9069C0.696289 137.637 40.2 177.141 88.9304 177.141Z" fill="white" fill-opacity="0.1"/>
<mask id="mask0" mask-type="alpha" maskUnits="userSpaceOnUse" x="0" y="0" width="178" height="178">
<path fill-rule="evenodd" clip-rule="evenodd" d="M88.9304 177.141C137.661 177.141 177.164 137.637 177.164 88.9069C177.164 40.1766 137.661 0.672852 88.9304 0.672852C40.2 0.672852 0.696289 40.1766 0.696289 88.9069C0.696289 137.637 40.2 177.141 88.9304 177.141Z" fill="white"/>
</mask>
<g mask="url(#mask0)">
<path fill-rule="evenodd" clip-rule="evenodd" d="M153.127 156.668C147.926 149.144 140.257 143.674 131.448 141.206L110.989 135.475V120.77C119.638 114.273 125.318 104.049 125.667 92.4841C126.875 93.0169 128.21 93.3189 129.616 93.3189C135.031 93.3189 139.42 88.9297 139.42 83.5151C139.42 78.1004 135.031 73.7113 129.616 73.7113C128.221 73.7113 126.896 74.0069 125.695 74.5324V71.7505C125.695 51.4459 109.235 34.9863 88.9308 34.9863H88.9303C68.6261 34.9863 52.1666 51.4459 52.1666 71.7505V74.5324C50.9646 74.0069 49.6401 73.7113 48.2451 73.7113C42.8304 73.7113 38.4413 78.1004 38.4413 83.5151C38.4413 88.9297 42.8304 93.3189 48.2451 93.3189C49.6514 93.3189 50.9857 93.0174 52.195 92.4841C52.5435 104.049 58.2234 114.273 66.8718 120.77V135.475L46.4132 141.206C37.6045 143.674 29.9355 149.144 24.7336 156.668L10.5005 177.259V191.847H167.361V177.259L153.127 156.668Z" fill="#FFCF83"/>
<path fill-rule="evenodd" clip-rule="evenodd" d="M88.9305 128.122C84.3972 128.122 80.0581 127.296 76.0483 125.796C81.7512 129.439 88.5237 131.553 95.7932 131.553C101.215 131.553 106.356 130.37 110.989 128.264V120.77C104.844 125.385 97.2073 128.122 88.9305 128.122Z" fill="#F7A74F"/>
<path d="M53.4454 84.9455C53.5704 84.4901 53.6376 84.0102 53.6376 83.5151C53.6376 80.5372 51.2234 78.123 48.2455 78.123C47.5009 78.123 46.7916 78.274 46.1465 78.5466" stroke="#00004D" stroke-width="2" stroke-linecap="round" stroke-linejoin="round"/>
<path d="M124.416 84.9455C124.291 84.4901 124.225 84.0102 124.225 83.5151C124.225 80.5372 126.639 78.123 129.617 78.123C130.361 78.123 131.07 78.274 131.716 78.5466" stroke="#00004D" stroke-width="2" stroke-linecap="round" stroke-linejoin="round"/>
<path fill-rule="evenodd" clip-rule="evenodd" d="M98.734 105.577C98.734 110.992 94.3449 115.381 88.9302 115.381C83.5156 115.381 79.1265 110.992 79.1265 105.577H98.734Z" fill="white"/>
<path fill-rule="evenodd" clip-rule="evenodd" d="M109.029 84.985C109.029 87.1507 107.273 88.9065 105.107 88.9065C102.941 88.9065 101.186 87.1507 101.186 84.985C101.186 82.8193 102.941 81.0635 105.107 81.0635C107.273 81.0635 109.029 82.8193 109.029 84.985Z" fill="#00004D"/>
<path fill-rule="evenodd" clip-rule="evenodd" d="M76.6756 84.985C76.6756 87.1507 74.9197 88.9065 72.754 88.9065C70.5884 88.9065 68.8325 87.1507 68.8325 84.985C68.8325 82.8193 70.5884 81.0635 72.754 81.0635C74.9197 81.0635 76.6756 82.8193 76.6756 84.985Z" fill="#00004D"/>
<path d="M88.9305 81.0635L93.8324 97.7299L86.9697 98.7103" stroke="#00004D" stroke-width="2" stroke-linecap="round" stroke-linejoin="round"/>
<path fill-rule="evenodd" clip-rule="evenodd" d="M128.146 73.8331V71.7503C128.146 64.2279 126.024 57.2025 122.352 51.2334C118.948 45.7016 114.208 41.086 108.585 37.8214C102.805 34.4655 96.0946 32.5352 88.9305 32.5352C81.7659 32.5352 75.0562 34.4655 69.2763 37.8214C63.6529 41.086 58.9128 45.7016 55.5094 51.2334C51.8374 57.2025 49.7153 64.2279 49.7153 71.7503V73.8331C51.7604 74.1419 53.5971 75.0758 55.0231 76.4424C59.5397 71.9091 63.1769 66.5004 65.6514 60.4872C72.5768 64.2318 80.5051 66.3582 88.9305 66.3582C97.3559 66.3582 105.284 64.2318 112.21 60.4872C114.684 66.5004 118.322 71.9091 122.838 76.4424C124.264 75.0758 126.101 74.1419 128.146 73.8331Z" fill="#121213"/>
<path fill-rule="evenodd" clip-rule="evenodd" d="M167.361 177.258L153.127 156.668C147.926 149.144 140.257 143.674 131.447 141.206L110.989 135.475C110.989 147.657 101.113 157.533 88.9303 157.533C76.7476 157.533 66.8718 147.657 66.8718 135.475L46.4127 141.206C37.604 143.674 29.935 149.144 24.7331 156.668L10.5 177.258V191.846H167.361V177.258Z" fill="#FB344F"/>
</g>
</svg>
