<svg width="34" height="33" viewBox="0 0 34 33" fill="none" xmlns="http://www.w3.org/2000/svg">
<path d="M17.4096 32.0598C26.388 32.0598 33.6664 25.0061 33.6664 16.3049C33.6664 7.60379 26.388 0.55011 17.4096 0.55011C8.43119 0.55011 1.15276 7.60379 1.15276 16.3049C1.15276 25.0061 8.43119 32.0598 17.4096 32.0598Z" fill="white"/>
<path d="M27.7548 19.1694C27.7548 13.6322 23.123 9.14349 17.4096 9.14349C11.696 9.14349 7.06427 13.6322 7.06427 19.1694H10.02C10.02 15.2142 13.3284 12.008 17.4094 12.008C21.4905 12.008 24.7989 15.2142 24.7989 19.1694" fill="black" fill-opacity="0.1"/>
<path d="M18.1488 23.7527C21.2505 23.7527 23.7648 21.316 23.7648 18.3101C23.7648 15.3042 21.2505 12.8675 18.1488 12.8675C15.0472 12.8675 12.5328 15.3042 12.5328 18.3101C12.5328 21.316 15.0472 23.7527 18.1488 23.7527Z" fill="black" fill-opacity="0.1"/>
<path d="M17.4101 22.1769C20.7565 22.1769 23.4693 19.5479 23.4693 16.3047C23.4693 13.0616 20.7565 10.4326 17.4101 10.4326C14.0636 10.4326 11.3508 13.0616 11.3508 16.3047C11.3508 19.5479 14.0636 22.1769 17.4101 22.1769Z" fill="url(#paint0_linear)"/>
<path d="M32.1885 9.1435C28.1197 1.21015 18.1852 -2.02466 9.99886 1.91832C7.44632 3.14768 5.26467 4.9951 3.66528 7.28161L10.3158 18.4533C9.09121 14.6807 11.2541 10.6599 15.147 9.47286C15.8317 9.26421 16.5441 9.15326 17.2618 9.1435" fill="url(#paint1_linear)"/>
<path d="M3.6654 7.2818C-1.42474 14.6408 0.604331 24.6051 8.19745 29.5384C10.5468 31.0647 13.2604 31.9822 16.0796 32.2032L23.026 20.7454C20.4285 23.7963 15.7716 24.2287 12.6236 21.7118C11.5543 20.8571 10.7547 19.7281 10.3159 18.4539" fill="url(#paint2_linear)"/>
<path d="M16.0797 32.203C25.1952 32.8708 33.1435 26.2508 33.833 17.4168C34.0554 14.5663 33.4877 11.7101 32.1886 9.14371H17.2621C21.3427 9.16194 24.6362 12.3828 24.6174 16.338C24.6097 17.9382 24.0494 19.4897 23.0257 20.7452" fill="url(#paint3_linear)"/>
<path d="M3.66528 7.28177L10.3158 18.4535C9.8232 16.8468 9.92775 15.1234 10.6113 13.5837L3.96072 6.85202" fill="url(#paint4_linear)"/>
<path d="M16.0799 32.203L23.0262 20.7451C21.9302 22.0116 20.4159 22.8718 18.7402 23.1799L15.7842 32.203" fill="url(#paint5_linear)"/>
<path d="M32.1884 9.14349H17.2617C18.3717 9.1485 19.4662 9.39574 20.464 9.86687C21.4618 10.338 22.3372 11.0209 23.0254 11.8649L32.4839 9.57344" fill="url(#paint6_linear)"/>
<defs>
<linearGradient id="paint0_linear" x1="17.4029" y1="10.4495" x2="17.4029" y2="22.1807" gradientUnits="userSpaceOnUse">
<stop stop-color="#81B4E0"/>
<stop offset="1" stop-color="#0C5A94"/>
</linearGradient>
<linearGradient id="paint1_linear" x1="17.9268" y1="0.263414" x2="17.9268" y2="13.2972" gradientUnits="userSpaceOnUse">
<stop stop-color="#F06B59"/>
<stop offset="1" stop-color="#DF2227"/>
</linearGradient>
<linearGradient id="paint2_linear" x1="4.8875" y1="27.707" x2="11.3781" y2="16.6417" gradientUnits="userSpaceOnUse">
<stop stop-color="#388B41"/>
<stop offset="1" stop-color="#4CB749"/>
</linearGradient>
<linearGradient id="paint3_linear" x1="27.6614" y1="28.8648" x2="20.7987" y2="11.8119" gradientUnits="userSpaceOnUse">
<stop stop-color="#E4B022"/>
<stop offset="0.3" stop-color="#FCD209"/>
</linearGradient>
<linearGradient id="paint4_linear" x1="7.13818" y1="18.0237" x2="7.13818" y2="6.56589" gradientUnits="userSpaceOnUse">
<stop stop-opacity="0.15"/>
<stop offset="0.3" stop-opacity="0.06"/>
<stop offset="1" stop-opacity="0.03"/>
</linearGradient>
<linearGradient id="paint5_linear" x1="23.4579" y1="21.7237" x2="15.589" y2="29.9909" gradientUnits="userSpaceOnUse">
<stop stop-opacity="0.15"/>
<stop offset="0.3" stop-opacity="0.06"/>
<stop offset="1" stop-opacity="0.03"/>
</linearGradient>
<linearGradient id="paint6_linear" x1="23.3394" y1="24.0311" x2="24.4506" y2="12.7099" gradientUnits="userSpaceOnUse">
<stop stop-opacity="0.15"/>
<stop offset="0.3" stop-opacity="0.06"/>
<stop offset="1" stop-opacity="0.03"/>
</linearGradient>
</defs>
</svg>
